<svg width="187" height="228" viewBox="0 0 187 228" fill="none" xmlns="http://www.w3.org/2000/svg">
<path d="M50.9169 82.479C53.5808 84.5823 61.9851 85.7304 68.6986 82.479L74.7818 80.1549C74.7818 80.1549 78.5253 78.7605 78.9933 84.3382C79.4612 89.9159 59.5543 97.6427 42 85.7326H28.4558C28.4558 85.7326 25.1802 82.479 28.4558 82.479H50.9169Z" fill="#A65840" stroke="#A65840"/>
<path d="M142.084 83.479C139.421 85.5823 131.016 86.7304 124.303 83.479L118.22 81.1549C118.22 81.1549 114.476 79.7605 114.008 85.3382C113.54 90.9159 133.447 98.6427 151.001 86.7326H164.546C164.546 86.7326 167.821 83.479 164.546 83.479H142.084Z" fill="#A65840" stroke="#A65840"/>
<path d="M63.5 217C66.1667 215.5 72.2 210.8 75 204L80.5 197L85.5 206C86 208.5 86.7 214.2 85.5 217C84 220.5 80.5 217 76.5 220C72.5 223 63.5 225 59 221.5C55.4 218.7 60.5 217.333 63.5 217Z" fill="#C1C0BE"/>
<path d="M132.663 217C129.996 215.5 123.963 210.8 121.163 204L115.663 197L110.663 206C110.163 208.5 109.463 214.2 110.663 217C112.163 220.5 115.663 217 119.663 220C123.663 223 132.663 225 137.163 221.5C140.763 218.7 135.663 217.333 132.663 217Z" fill="#C1C0BE"/>
<path d="M102 120.5C95.5 120.667 82.6 117.4 83 103L89 93.5L110 96V111C110 121 104.667 121.5 102 120.5Z" fill="#A65840"/>
<path d="M76.4999 44.8688C76.4999 30.9154 87.0955 26.5477 96.6804 27C106.265 27.4523 115.606 30.259 118 42.3688C119.1 47.9358 107.802 57.4087 97.4493 64.41C97.3918 64.4645 97.3144 64.5169 97.2161 64.5674C97.0909 64.6518 96.9659 64.7357 96.841 64.8193C115.233 70.822 99.0423 89.5697 94.5547 94.8284C94.196 95.5447 93.8852 96.007 93.6539 96.145C93.2161 96.4062 93.6449 95.8945 94.5547 94.8284C97.3699 89.2068 103.135 67.9401 96.5444 65.0174C84.7562 72.8694 74.7227 77.2302 86.5317 68.5C91.3304 64.9524 94.5201 64.1197 96.5444 65.0174C96.6431 64.9516 96.742 64.8856 96.841 64.8193C96.7878 64.8019 96.7342 64.7846 96.6804 64.7675C96.9015 64.7043 97.0791 64.6377 97.2161 64.5674C97.2938 64.5151 97.3715 64.4626 97.4493 64.41C99.489 62.4767 76.4999 57.9406 76.4999 44.8688Z" fill="#FFADAD"/>
<rect x="91" y="57" width="12" height="33" fill="#A65840"/>
<path d="M92.3938 69.0364C92.4692 69.1762 92.5448 69.3133 92.6203 69.4477C94.6551 70.1087 103.215 71.0359 101.808 73.7579C101.808 73.7579 101.808 73.7579 101.808 73.7579C102.294 73.2012 102.694 72.4865 102.985 71.6502C114.989 70.1031 118.808 80.1726 120.731 80.0472C124.489 79.8021 114.14 90.2929 111.226 80.0472C108.312 69.8015 109.568 96.5246 111.226 102.089C100.157 103.209 80.1858 110.777 82.8829 104.956C85.0325 100.317 91.6383 92.5413 94.2797 85.3578C88.2827 86.2401 90.5129 91.5798 87.8877 85.3578C88.6654 84.4607 92.0759 82.4527 95.3872 80.0472C95.4354 75.8758 98.6824 74.8231 100.148 76.0084C100.85 75.2544 101.425 74.4986 101.808 73.7579C99.7361 76.1291 96.0985 75.6327 92.6203 69.4477C92.1755 69.3032 92.0426 69.1714 92.3938 69.0364Z" fill="black" fill-opacity="0.1"/>
<ellipse cx="97.5" cy="49.5" rx="8.5" ry="15.5" fill="black" fill-opacity="0.1"/>
<circle cx="116.5" cy="200.5" r="6.5" fill="#0D0808" fill-opacity="0.1"/>
<ellipse cx="97" cy="48" rx="16" ry="14" fill="#A65840"/>
<circle cx="79.5" cy="200.5" r="6.5" fill="black" fill-opacity="0.1"/>
<path d="M72.5 132.5C74.3333 124.833 79 108.8 83 106C92.0225 109.847 98.1735 109.015 112 106C113.713 108.485 123.391 130.682 126 144.5C126.5 158.5 126.9 189.3 124.5 200.5C121.684 204.594 115.182 207.069 108 200.5C104.714 185.138 98.7938 149.106 98.5 140.5C97.8582 156.334 92.6516 189.752 85.5 202C79.8272 206.128 76.9995 205.652 72.5 200.5C71.5 192 69.5 173.1 69.5 165.5C69.5 157.9 71.5 140.333 72.5 132.5Z" fill="#333333"/>
<path d="M103.424 65.0039C101.281 68.8958 94.6979 72.6875 90.9239 65.0039C88.7572 65.5039 81.6846 65.492 79.5 68.3253C76.4159 72.3253 69.6791 80.4863 68 81.8253C70.1259 87.6725 75.0169 87.0738 81.5 86.8253C81.5 85.1586 84 76.8253 83 84.3253C82 91.8253 85 95.8253 81.5 100.825C78 105.825 100.089 100.825 112 100.825C110.833 95.6586 110 77.3253 112 86.8253C114 96.3253 128.529 81.947 124.5 81.8253C122.438 81.763 116.377 64.7038 103.424 65.0039Z" fill="url(#paint0_linear)"/>
<path d="M86 108C78.096 120 74.04 142.667 73 152.5V201" stroke="white" stroke-opacity="0.5"/>
<path d="M109 108C117.469 120.064 122.886 143.355 124 153.241V202" stroke="white" stroke-opacity="0.5"/>
<path d="M111 45.5C107.831 47.7508 97.3832 42.6166 97 34.5C94.8294 41.4996 85.7558 49.0396 80.5 46.5C75.9755 44.3138 81.5 41.5 86.5 35.5C90.5 30.7 95.5 29.8333 97.5 30C100.167 31 107.2 34.5 114 40.5C120.8 46.5 114.833 46.3333 111 45.5Z" fill="#FFADAD"/>
<line x1="26.9909" y1="81.7575" x2="61.0019" y2="81.7575" stroke="black" stroke-opacity="0.1" stroke-width="5"/>
<line x1="141" y1="83.5" x2="166" y2="83.5" stroke="black" stroke-opacity="0.1" stroke-width="3"/>
<path d="M16 78C16 75.2386 18.2386 73 21 73H61V83H21C18.2386 83 16 80.7614 16 78Z" fill="#FF8484"/>
<path d="M32.4634 78C32.4634 75.7909 34.2543 74 36.4634 74H61V82H36.4634C34.2543 82 32.4634 80.2091 32.4634 78Z" fill="#FEFFE4"/>
<path d="M61 68C61 65.2386 58.7614 63 56 63H16V73H56C58.7614 73 61 70.7614 61 68Z" fill="#CE4040"/>
<path d="M44.5366 68C44.5366 65.7909 42.7457 64 40.5366 64H16V72H40.5366C42.7457 72 44.5366 70.2091 44.5366 68Z" fill="#FEFFE4"/>
<rect x="32.5017" y="27.5219" width="4" height="35.9636" transform="rotate(-8.60513 32.5017 27.5219)" fill="#C4C4C4"/>
<path d="M32.9775 17.2992L36.2856 27.5837L32.8605 28.102L32.9775 17.2992Z" fill="#C4C4C4"/>
<rect x="41.6287" y="33.682" width="3.71113" height="27.6525" transform="rotate(5.45493 41.6287 33.682)" fill="#C4C4C4"/>
<path d="M44.2095 26.1764L45.0297 34.4913L41.8303 34.1858L44.2095 26.1764Z" fill="#C4C4C4"/>
<path d="M31 44H47L44.5111 63H34.5556L31 44Z" fill="#8D7474"/>
<rect x="141" y="40" width="15" height="12" rx="2" fill="#BE8484"/>
<path d="M153.315 46.2051C152.752 45.9034 152.752 45.0966 153.315 44.7949L161.322 40.5024C161.855 40.2167 162.5 40.6027 162.5 41.2074V49.7926C162.5 50.3973 161.855 50.7833 161.322 50.4976L153.315 46.2051Z" fill="#BE8484"/>
<rect x="136" y="80" width="42" height="3" fill="#737373"/>
<path d="M159.88 61.8428V75.125C159.88 76.0387 159.074 76.7794 158.08 76.7794H133.92C132.926 76.7794 132.12 76.0387 132.12 75.125V61.8428C132.12 60.9291 132.926 60.1884 133.92 60.1884H135.667C136.219 60.1884 136.748 59.9826 137.132 59.6179L139.36 57.5034C139.699 57.1816 140.166 57 140.653 57H145.309H150.792C151.232 57 151.656 57.1478 151.985 57.4155L154.816 59.7175C155.189 60.0209 155.669 60.1884 156.168 60.1884H158.08C159.074 60.1884 159.88 60.9291 159.88 61.8428Z" fill="#891D1D" fill-opacity="0.83" stroke="white" stroke-opacity="0.4" stroke-width="1.5"/>
<path d="M132 66.0074H160" stroke="white" stroke-opacity="0.4"/>
<path d="M145.92 74.6838C149.896 74.6838 153.12 71.721 153.12 68.0662C153.12 64.4114 149.896 61.4485 145.92 61.4485C141.944 61.4485 138.72 64.4114 138.72 68.0662C138.72 71.721 141.944 74.6838 145.92 74.6838Z" fill="#9E3A3A" fill-opacity="0.83"/>
<path d="M145.92 74.6103C149.852 74.6103 153.04 71.6804 153.04 68.0662C153.04 64.452 149.852 61.5221 145.92 61.5221C141.988 61.5221 138.8 64.452 138.8 68.0662C138.8 71.6804 141.988 74.6103 145.92 74.6103Z" fill="#9E3A3A" fill-opacity="0.83" stroke="white" stroke-opacity="0.4"/>
<path d="M145.92 73.2132C149.013 73.2132 151.52 70.9088 151.52 68.0662C151.52 65.2235 149.013 62.9191 145.92 62.9191C142.827 62.9191 140.32 65.2235 140.32 68.0662C140.32 70.9088 142.827 73.2132 145.92 73.2132Z" fill="#D3D5DB" fill-opacity="0.5"/>
<path d="M145.92 73.1397C148.969 73.1397 151.44 70.8682 151.44 68.0662C151.44 65.2641 148.969 62.9926 145.92 62.9926C142.871 62.9926 140.4 65.2641 140.4 68.0662C140.4 70.8682 142.871 73.1397 145.92 73.1397Z" stroke="white" stroke-opacity="0.4"/>
<path d="M148 64.6838C151.528 66.7148 150.113 69.2323 148.965 70.7132" stroke="white" stroke-opacity="0.4"/>
<path d="M163 66C163 66 163.49 74.1981 170.68 73.9963C177.678 73.8 178 66 178 66" stroke="#5F0000" stroke-opacity="0.4"/>
<path d="M175 54.9129C175 52.1996 172.985 50 170.5 50C168.015 50 166 52.1996 166 54.9129V67.0871C166 69.8004 168.015 72 170.5 72C172.985 72 175 69.8004 175 67.0871V54.9129Z" fill="#D99B9B" stroke="#5F0000" stroke-opacity="0.4"/>
<path d="M171 74V80" stroke="#5F0000" stroke-opacity="0.4"/>
<path d="M171 74V80" stroke="#5F0000" stroke-opacity="0.4"/>
<path d="M166 80H175" stroke="#837D7D" stroke-opacity="0.4"/>
<path d="M166 55H171" stroke="#5F0000" stroke-opacity="0.4"/>
<path d="M166 57H171" stroke="#5F0000" stroke-opacity="0.4"/>
<path d="M166 59H171" stroke="#5F0000" stroke-opacity="0.4"/>
<path d="M166 61H171" stroke="#5F0000" stroke-opacity="0.4"/>
<ellipse cx="100" cy="21.5" rx="10" ry="9.5" fill="#FFADAD"/>
<defs>
<linearGradient id="paint0_linear" x1="96.6013" y1="65" x2="96.6013" y2="103.048" gradientUnits="userSpaceOnUse">
<stop stop-color="#FF5E5E"/>
<stop offset="1" stop-color="#FF9D9D"/>
</linearGradient>
</defs>
</svg>
