<svg width="1428" height="385" viewBox="0 0 1428 385" fill="none" xmlns="http://www.w3.org/2000/svg">
<path d="M377.68 247.6L512.92 81.56H379.92V64.2H535.6V79.6L402.04 245.64H535.32V263H377.68V247.6ZM624.172 265.8C613.532 265.8 603.732 263.84 594.772 259.92C585.999 255.813 578.345 250.307 571.812 243.4C565.279 236.307 560.145 228.187 556.412 219.04C552.865 209.893 551.092 200.093 551.092 189.64C551.092 179.373 552.865 169.76 556.412 160.8C560.145 151.653 565.185 143.72 571.532 137C578.065 130.093 585.812 124.68 594.772 120.76C603.732 116.653 613.439 114.6 623.892 114.6C634.532 114.6 644.239 116.653 653.012 120.76C661.972 124.68 669.625 130.093 675.972 137C682.319 143.907 687.265 151.84 690.812 160.8C694.359 169.76 696.132 179.28 696.132 189.36C696.132 190.853 696.132 192.347 696.132 193.84C696.132 195.333 696.039 196.36 695.852 196.92H570.972C571.532 204.76 573.305 212.04 576.292 218.76C579.465 225.293 583.479 230.987 588.332 235.84C593.185 240.693 598.692 244.52 604.852 247.32C611.199 249.933 617.919 251.24 625.012 251.24C629.679 251.24 634.345 250.587 639.012 249.28C643.679 247.973 647.972 246.2 651.892 243.96C655.812 241.72 659.359 239.013 662.532 235.84C665.705 232.48 668.132 228.84 669.812 224.92L686.332 229.4C684.092 234.813 680.919 239.76 676.812 244.24C672.705 248.533 667.945 252.36 662.532 255.72C657.119 258.893 651.145 261.32 644.612 263C638.079 264.867 631.265 265.8 624.172 265.8ZM677.932 182.36C677.372 174.52 675.505 167.427 672.332 161.08C669.345 154.547 665.425 148.947 660.572 144.28C655.905 139.613 650.399 135.973 644.052 133.36C637.892 130.747 631.265 129.44 624.172 129.44C617.079 129.44 610.359 130.747 604.012 133.36C597.665 135.973 592.065 139.613 587.212 144.28C582.545 148.947 578.719 154.547 575.732 161.08C572.932 167.613 571.252 174.707 570.692 182.36H677.932ZM785.428 265.8C775.348 265.8 766.014 263.747 757.428 259.64C748.841 255.347 741.468 249.747 735.308 242.84C729.148 235.933 724.294 228 720.748 219.04C717.388 209.893 715.708 200.373 715.708 190.48C715.708 180.213 717.388 170.507 720.748 161.36C724.108 152.027 728.681 143.907 734.468 137C740.441 130.093 747.441 124.68 755.468 120.76C763.681 116.653 772.641 114.6 782.348 114.6C794.668 114.6 805.588 117.867 815.108 124.4C824.628 130.747 832.094 138.493 837.508 147.64V58.6H856.548V238.36C856.548 243.587 858.788 246.2 863.268 246.2V263C860.468 263.56 858.228 263.84 856.548 263.84C852.068 263.84 848.148 262.44 844.788 259.64C841.428 256.653 839.748 253.107 839.748 249V234.72C833.961 244.24 826.121 251.8 816.228 257.4C806.334 263 796.068 265.8 785.428 265.8ZM789.628 249C794.294 249 799.241 248.067 804.468 246.2C809.881 244.333 814.921 241.813 819.588 238.64C824.254 235.28 828.174 231.453 831.348 227.16C834.708 222.68 836.761 217.92 837.508 212.88V167.8C835.641 162.76 832.934 158.093 829.388 153.8C825.841 149.32 821.734 145.4 817.068 142.04C812.588 138.68 807.734 136.067 802.508 134.2C797.281 132.333 792.148 131.4 787.108 131.4C779.268 131.4 772.174 133.08 765.828 136.44C759.481 139.8 753.974 144.28 749.308 149.88C744.828 155.293 741.374 161.547 738.948 168.64C736.521 175.733 735.308 183.013 735.308 190.48C735.308 198.32 736.708 205.787 739.508 212.88C742.308 219.973 746.134 226.227 750.988 231.64C755.841 236.867 761.534 241.067 768.068 244.24C774.788 247.413 781.974 249 789.628 249ZM1083.37 117.12H1102.13L1039.41 263H1023.73L992.368 188.52L961.288 263H945.608L882.888 117.12H901.368L954.568 243.4L982.288 176.76L957.368 117.4H973.328L992.368 165L1011.41 117.4H1027.65L1002.73 176.76L1030.45 243.4L1083.37 117.12ZM1160.59 265.8C1153.68 265.8 1147.24 264.68 1141.27 262.44C1135.48 260.013 1130.35 256.747 1125.87 252.64C1121.57 248.533 1118.21 243.773 1115.79 238.36C1113.36 232.76 1112.15 226.787 1112.15 220.44C1112.15 214.093 1113.64 208.213 1116.63 202.8C1119.61 197.387 1123.81 192.72 1129.23 188.8C1134.64 184.88 1141.08 181.893 1148.55 179.84C1156.01 177.6 1164.23 176.48 1173.19 176.48C1180.65 176.48 1188.21 177.133 1195.87 178.44C1203.52 179.747 1210.33 181.613 1216.31 184.04V170.88C1216.31 158 1212.67 147.827 1205.39 140.36C1198.11 132.707 1188.03 128.88 1175.15 128.88C1167.68 128.88 1160.03 130.373 1152.19 133.36C1144.35 136.347 1136.41 140.64 1128.39 146.24L1121.67 133.64C1140.52 120.947 1158.81 114.6 1176.55 114.6C1194.84 114.6 1209.21 119.733 1219.67 130C1230.12 140.267 1235.35 154.453 1235.35 172.56V238.36C1235.35 243.587 1237.68 246.2 1242.35 246.2V263C1239.17 263.56 1236.75 263.84 1235.07 263.84C1230.21 263.84 1226.39 262.627 1223.59 260.2C1220.97 257.773 1219.57 254.413 1219.39 250.12L1218.83 238.64C1212.11 247.413 1203.61 254.133 1193.35 258.8C1183.27 263.467 1172.35 265.8 1160.59 265.8ZM1165.07 251.24C1174.96 251.24 1184.01 249.373 1192.23 245.64C1200.63 241.907 1206.97 236.96 1211.27 230.8C1212.95 229.12 1214.16 227.347 1214.91 225.48C1215.84 223.427 1216.31 221.56 1216.31 219.88V196.08C1209.96 193.653 1203.33 191.787 1196.43 190.48C1189.71 189.173 1182.8 188.52 1175.71 188.52C1162.27 188.52 1151.35 191.32 1142.95 196.92C1134.55 202.52 1130.35 209.893 1130.35 219.04C1130.35 223.52 1131.19 227.72 1132.87 231.64C1134.73 235.56 1137.16 239.013 1140.15 242C1143.32 244.8 1147.05 247.04 1151.35 248.72C1155.64 250.4 1160.21 251.24 1165.07 251.24ZM1281.33 307.8C1282.82 307.987 1284.22 308.08 1285.53 308.08C1287.02 308.267 1288.42 308.36 1289.73 308.36C1293.09 308.36 1295.7 307.893 1297.57 306.96C1299.62 306.027 1301.58 303.973 1303.45 300.8C1305.32 297.627 1307.37 293.053 1309.61 287.08C1312.04 281.107 1315.4 273.08 1319.69 263L1256.13 117.12H1275.73L1329.77 245.36L1379.89 117.12H1398.09L1322.49 305.28C1320.44 310.693 1316.98 315.36 1312.13 319.28C1307.46 323.387 1301.02 325.44 1292.81 325.44C1290.94 325.44 1289.17 325.347 1287.49 325.16C1285.81 325.16 1283.76 324.973 1281.33 324.6V307.8Z" fill="url(#paint0_linear)"/>
<path d="M230.849 38.8896L144.718 222.155L5.03809 120.863L230.849 38.8896Z" fill="#EC7490" fill-opacity="0.5" stroke="black"/>
<path d="M97.5993 327.391L184.44 143.854L324.534 245.01L97.5993 327.391Z" fill="#8A9AF1" fill-opacity="0.5" stroke="black"/>
<g filter="url(#filter0_d)">
<path d="M323.983 244.487L96.1453 327.196L233.418 38.663L5.58062 121.372" stroke="black" stroke-width="6"/>
</g>
<defs>
<filter id="filter0_d" x="0.372375" y="33.3085" width="328.819" height="307.242" filterUnits="userSpaceOnUse" color-interpolation-filters="sRGB">
<feFlood flood-opacity="0" result="BackgroundImageFix"/>
<feColorMatrix in="SourceAlpha" type="matrix" values="0 0 0 0 0 0 0 0 0 0 0 0 0 0 0 0 0 0 127 0"/>
<feOffset dy="4"/>
<feGaussianBlur stdDeviation="2"/>
<feColorMatrix type="matrix" values="0 0 0 0 0 0 0 0 0 0 0 0 0 0 0 0 0 0 0.25 0"/>
<feBlend mode="normal" in2="BackgroundImageFix" result="effect1_dropShadow"/>
<feBlend mode="normal" in="SourceGraphic" in2="effect1_dropShadow" result="shape"/>
</filter>
<linearGradient id="paint0_linear" x1="856" y1="-127" x2="1092" y2="329" gradientUnits="userSpaceOnUse">
<stop stop-color="#8A9AF1"/>
<stop offset="1" stop-color="#EC7490"/>
</linearGradient>
</defs>
</svg>
