<svg width="224" height="203" viewBox="0 0 224 203" fill="none" xmlns="http://www.w3.org/2000/svg">
<rect width="224" height="203" rx="40" fill="#72C8F9"/>
<rect width="224" height="203" rx="40" fill="url(#paint0_linear)"/>
<ellipse cx="29" cy="24.5" rx="7" ry="4.5" fill="#C4C4C4" fill-opacity="0.6"/>
<circle cx="22.5" cy="160.5" r="4.5" fill="#C4C4C4" fill-opacity="0.54"/>
<circle cx="180.5" cy="28.5" r="4.5" fill="#539DC7" fill-opacity="0.52"/>
<ellipse cx="180" cy="159" rx="4" ry="3" fill="#C4C4C4" fill-opacity="0.64"/>
<ellipse cx="42" cy="49" rx="4" ry="3" fill="#539DC7" fill-opacity="0.67"/>
<path d="M19.6329 42.4657C19.6129 40.7268 21.071 39.3352 22.8072 39.4364L26.0172 39.6234C28.6354 39.7759 29.8112 42.9779 27.9139 44.7886L24.7409 47.8168C22.8436 49.6275 19.7 48.3034 19.6698 45.681L19.6329 42.4657Z" fill="#C4C4C4" fill-opacity="0.72"/>
<path d="M44.1971 22.9002C45.2948 21.2157 47.7064 21.0667 49.0032 22.6033L50.4308 24.295C52.0214 26.1798 50.7847 29.072 48.3231 29.2241L45.6869 29.387C43.2254 29.5391 41.642 26.821 42.9885 24.7548L44.1971 22.9002Z" fill="#539DC7" fill-opacity="0.67"/>
<path d="M189.578 135.985C190.662 134.626 192.672 134.471 193.952 135.647L196.32 137.823C198.251 139.598 197.135 142.822 194.52 143.023L190.147 143.36C187.532 143.562 185.936 140.548 187.572 138.498L189.578 135.985Z" fill="#539DC7" fill-opacity="0.76"/>
<path d="M177.828 45.5675C179.478 46.1171 180.316 47.95 179.653 49.5577L178.427 52.5302C177.427 54.9547 174.016 55.0192 172.926 52.6342L171.101 48.6456C170.01 46.2606 172.289 43.7226 174.777 44.5514L177.828 45.5675Z" fill="#C4C4C4" fill-opacity="0.59"/>
<path d="M44.9766 162.173C48.1053 160.809 51.6505 162.912 51.9545 166.311L52.3808 171.078C52.7439 175.138 48.3565 177.903 44.8502 175.824L40.0365 172.969C36.5302 170.89 36.8522 165.714 40.5892 164.085L44.9766 162.173Z" fill="#539DC7" fill-opacity="0.6"/>
<ellipse cx="81.5" cy="176" rx="2.5" ry="2" fill="#539DC7" fill-opacity="0.76"/>
<ellipse cx="192.5" cy="51" rx="2.5" ry="2" fill="#539DC7" fill-opacity="0.71"/>
<ellipse cx="36.5" cy="37" rx="2.5" ry="2" fill="#C4C4C4" fill-opacity="0.72"/>
<circle cx="136.5" cy="172.5" r="3.5" fill="#539DC7" fill-opacity="0.6"/>
<circle cx="20.5" cy="66.5" r="3.5" fill="#C4C4C4" fill-opacity="0.55"/>
<g filter="url(#filter0_i)">
<ellipse cx="109" cy="149.5" rx="49" ry="31.5" fill="#3A658D"/>
</g>
<circle cx="203.5" cy="159.5" r="3.5" fill="#C4C4C4" fill-opacity="0.68"/>
<path d="M139 171C139 177.351 123.359 181 109 181C94.6406 181 79 177.351 79 171C79 164.649 94.6406 158 109 158C123.359 158 139 164.649 139 171Z" fill="#E14E83"/>
<g filter="url(#filter1_d)">
<path d="M130.5 130C129.22 134.229 127.849 140.06 125.999 139.5C124.149 138.94 123.219 133.229 124.499 129C125.779 124.771 124.65 119.643 126.5 120.203C128.35 120.763 135.747 119.574 130.5 130Z" fill="#C4C4C4"/>
</g>
<g filter="url(#filter2_d)">
<path d="M94.0477 128.533C94.9804 132.852 96.6119 138.616 94.7225 139.024C92.833 139.432 89.2481 134.89 88.3154 130.571C87.3828 126.253 83.9066 122.317 85.796 121.909C87.6855 121.501 93.5761 116.871 94.0477 128.533Z" fill="#C4C4C4"/>
</g>
<ellipse cx="95.6246" cy="164.2" rx="3.5" ry="1" transform="rotate(-21.2277 95.6246 164.2)" fill="#FD7FAD" fill-opacity="0.87"/>
<g filter="url(#filter3_d)">
<ellipse cx="109.5" cy="62" rx="38.5" ry="40" fill="#D9CBB3"/>
</g>
<path d="M148 56.5C148 77.763 130.763 95 109.5 95C88.237 95 71 77.763 71 56.5C71 35.237 88.237 18 109.5 18C130.763 18 148 35.237 148 56.5Z" fill="#FBEBCE"/>
<ellipse cx="99.5" cy="54" rx="19.5" ry="19" fill="#72C8F9"/>
<circle cx="99" cy="53" r="13" fill="#3A658D"/>
<ellipse cx="89.5" cy="46.5" rx="5.5" ry="3.5" fill="white"/>
<defs>
<filter id="filter0_i" x="60" y="118" width="98" height="67" filterUnits="userSpaceOnUse" color-interpolation-filters="sRGB">
<feFlood flood-opacity="0" result="BackgroundImageFix"/>
<feBlend mode="normal" in="SourceGraphic" in2="BackgroundImageFix" result="shape"/>
<feColorMatrix in="SourceAlpha" type="matrix" values="0 0 0 0 0 0 0 0 0 0 0 0 0 0 0 0 0 0 127 0" result="hardAlpha"/>
<feOffset dy="4"/>
<feGaussianBlur stdDeviation="2"/>
<feComposite in2="hardAlpha" operator="arithmetic" k2="-1" k3="1"/>
<feColorMatrix type="matrix" values="0 0 0 0 0 0 0 0 0 0 0 0 0 0 0 0 0 0 0.25 0"/>
<feBlend mode="normal" in2="shape" result="effect1_innerShadow"/>
</filter>
<filter id="filter1_d" x="116.416" y="119.58" width="20.9422" height="28.4775" filterUnits="userSpaceOnUse" color-interpolation-filters="sRGB">
<feFlood flood-opacity="0" result="BackgroundImageFix"/>
<feColorMatrix in="SourceAlpha" type="matrix" values="0 0 0 0 0 0 0 0 0 0 0 0 0 0 0 0 0 0 127 0"/>
<feOffset dy="4"/>
<feGaussianBlur stdDeviation="2"/>
<feColorMatrix type="matrix" values="0 0 0 0 0 0 0 0 0 0 0 0 0 0 0 0 0 0 0.25 0"/>
<feBlend mode="normal" in2="BackgroundImageFix" result="effect1_dropShadow"/>
<feBlend mode="normal" in="SourceGraphic" in2="effect1_dropShadow" result="shape"/>
</filter>
<filter id="filter2_d" x="81" y="120" width="19.6014" height="28.2553" filterUnits="userSpaceOnUse" color-interpolation-filters="sRGB">
<feFlood flood-opacity="0" result="BackgroundImageFix"/>
<feColorMatrix in="SourceAlpha" type="matrix" values="0 0 0 0 0 0 0 0 0 0 0 0 0 0 0 0 0 0 127 0"/>
<feOffset dy="4"/>
<feGaussianBlur stdDeviation="2"/>
<feColorMatrix type="matrix" values="0 0 0 0 0 0 0 0 0 0 0 0 0 0 0 0 0 0 0.25 0"/>
<feBlend mode="normal" in2="BackgroundImageFix" result="effect1_dropShadow"/>
<feBlend mode="normal" in="SourceGraphic" in2="effect1_dropShadow" result="shape"/>
</filter>
<filter id="filter3_d" x="67" y="22" width="85" height="88" filterUnits="userSpaceOnUse" color-interpolation-filters="sRGB">
<feFlood flood-opacity="0" result="BackgroundImageFix"/>
<feColorMatrix in="SourceAlpha" type="matrix" values="0 0 0 0 0 0 0 0 0 0 0 0 0 0 0 0 0 0 127 0"/>
<feOffset dy="4"/>
<feGaussianBlur stdDeviation="2"/>
<feColorMatrix type="matrix" values="0 0 0 0 0 0 0 0 0 0 0 0 0 0 0 0 0 0 0.25 0"/>
<feBlend mode="normal" in2="BackgroundImageFix" result="effect1_dropShadow"/>
<feBlend mode="normal" in="SourceGraphic" in2="effect1_dropShadow" result="shape"/>
</filter>
<linearGradient id="paint0_linear" x1="112" y1="0" x2="112" y2="203" gradientUnits="userSpaceOnUse">
<stop stop-color="#72C8F9"/>
<stop offset="1" stop-color="#10A2F5"/>
</linearGradient>
</defs>
</svg>
